<svg xmlns="http://www.w3.org/2000/svg" viewBox="0 0 26.45833 7.9375"><path fill="#1f1f23" d="M13.22917 1.05834A2.11667 2.11667 0 0011.1125 3.175a2.11667 2.11667 0 002.11667 2.11666 2.11667 2.11667 0 002.11666-2.11666 2.11667 2.11667 0 00-2.11666-2.11667zm-.82683 1.2745h.32895c.0195.04575.03255.10001.02678.15781-.08863-.0696-.08256-.06187-.15525-.09428-.16736-.07462-.38934.03151-.43108.21578-.04448.16934-.01008.38479.15703.47507.1745.09489.43199.05562.5294-.13116.1067-.1904.10388-.42703.0143-.62322h.7134c-.08958.19619-.0924.43282.0143.62322.0974.18678.3549.22605.5294.13116.16711-.09028.2015-.30573.15703-.47506-.04174-.18428-.26373-.2904-.43108-.2158-.07269.03242-.06662.02468-.15526.09428-.00576-.05779.0073-.11206.02678-.1578h.32895c.25194 0 .45475.18699.45475.4193 0 .2323-.20281.41931-.45475.41931h-1.65365c-.25193 0-.45475-.18702-.45475-.41932 0-.2323.20282-.4193.45475-.4193z"/><path fill="#30bced" d="M12.10953 1.88784c-.13848-.00025-.27781.0256-.40482.07151-.07883.02931-.17002.05696-.2631.08678a2.11667 2.11667 0 00-.3222.99135c.08263-.07239.199-.2375.36616-.54515.09454-.20885.36331-.43626.5925-.46713.208-.03183.42911.04022.57756.19066.02108.02137.05283.06327.0757.11698h.14117c-.0458-.1003-.1142-.19006-.20237-.2576-.15762-.13082-.3582-.18702-.5606-.1874z"/><path fill="#fc5130" d="M14.34883 1.88784c-.2024.00037-.40297.05659-.56058.1874-.0882.06754-.15659.1573-.20238.2576h.14117c.02287-.0537.05462-.09561.0757-.11698.14844-.15044.36956-.2225.57756-.19065.22918.03086.49793.25827.59246.46712.16717.30765.28354.47276.36616.54515a2.11663 2.11667 0 00-.3222-.99135c-.09307-.02982-.18427-.05746-.2631-.08678-.127-.04592-.2663-.07177-.40479-.0715z"/><g stroke-width=".26458" aria-label="clef.ninja" ><path d="M11.47975 7.04567q-.07303 0-.13124-.0328-.0582-.0328-.09207-.0942-.0328-.0624-.0328-.14711 0-.0847.03597-.14711.03704-.0624.09843-.0952.06138-.0328.13441-.0328.08573 0 .15346.0572l-.06879.0931q-.0201-.0169-.0381-.0243-.01799-.008-.0381-.008-.0582 0-.09419.0434-.03492.0423-.03492.1143 0 .0709.03387.1143.03492.0423.08996.0423.04763 0 .09948-.0402l.05715.0942q-.03704.0317-.08255.0476-.04445.0159-.08996.0159zM11.88297 7.04567q-.0709 0-.10266-.0434-.03175-.0434-.03175-.12277v-.59055h.14394v.5969q0 .0222.0085.0328.0085.01.01905.01.01058 0 .01905-.002l.01799.10795q-.0307.0116-.07408.0116zM12.47987 6.74722q0 .0402-.0063.0656h-.32385q.01058.0624.0508.0921.04128.0296.09525.0296.05609 0 .11642-.0349l.04763.0878q-.03916.0275-.08784.0434-.04763.0148-.09525.0148-.07408 0-.13441-.0328-.05927-.0328-.0942-.0953-.03386-.0624-.03386-.14605 0-.0825.03387-.14499.03493-.0624.09102-.0963t.1196-.0339q.10688 0 .16403.0699.05715.0688.05715.18098zm-.12383-.0307q0-.0508-.02328-.0794-.02328-.0296-.0709-.0296-.03916 0-.06985.0275-.02963.0265-.04022.0815zM12.81536 6.39056q-.06138 0-.06138.0794v.0392h.09631v.1143h-.0963v.40958h-.145v-.40958h-.06985v-.10795l.06985-.005v-.037q0-.0889.04445-.14287.0455-.054.14182-.054.05503 0 .1016.019l-.02646.10689q-.02858-.0116-.05503-.0116z" /><path fill="#2d3748" d="M12.99316 7.04567q-.02434 0-.04128-.0169-.01693-.018-.01693-.0444 0-.0275.01693-.0445.01693-.018.04128-.018.02434 0 .04127.018.01693.0169.01693.0445 0 .0265-.01693.0444-.01693.0169-.04127.0169zM13.21117 6.51968h.0635l.0064.0762h.0032q.04233-.0423.08255-.0656.04127-.0233.08996-.0233.08043 0 .11854.0508.0381.0497.0381.14922v.32597h-.07726v-.31644q0-.0741-.02434-.10795-.02328-.0339-.07726-.0339-.0381 0-.07091.0201-.03281.019-.0762.0624v.37571h-.0762zM13.78585 6.51968h.0762v.51329h-.0762zm.03916-.11007q-.02328 0-.0381-.0148-.01482-.0148-.01482-.0392 0-.0233.01482-.0371.01482-.0148.0381-.0148.02328 0 .0381.0148.01482.0138.01482.0371 0 .0243-.01482.0392-.01482.0148-.0381.0148zM14.04196 6.51968h.0635l.0064.0762h.0032q.04233-.0423.08255-.0656.04127-.0233.08996-.0233.08043 0 .11854.0508.0381.0497.0381.14922v.32597h-.07726v-.31644q0-.0741-.02434-.10795-.02328-.0339-.07726-.0339-.0381 0-.07091.0201-.03281.019-.0762.0624v.37571h-.0762zM14.6558 6.40961q-.02328 0-.0381-.0148-.01482-.0148-.01482-.0392 0-.0233.01482-.0371.01482-.0148.0381-.0148.02328 0 .0381.0148.01482.0138.01482.0371 0 .0243-.01482.0392-.01482.0148-.0381.0148zm-.03598.11007h.0762v.58102q0 .0804-.03281.12277-.03175.0423-.1016.0423-.03916 0-.07302-.0127l.01587-.0593q.0254.008.04974.008.03704 0 .0508-.0254.01376-.0254.01376-.0773zM14.98917 7.04567q-.06562 0-.10795-.0381-.04233-.0381-.04233-.10689 0-.0836.0762-.12806.0762-.0455.24342-.0635 0-.0603-.0254-.0984-.02434-.0392-.08467-.0392-.07302 0-.15558.0561l-.03069-.0529q.1016-.0677.19897-.0677.0889 0 .13123.0561.04233.055.04233.1524v.3175h-.0635l-.0063-.0624h-.0032q-.09102.0751-.1725.0751zm.02011-.0624q.03704 0 .07197-.0169.03598-.018.07726-.055v-.15028q-.1323.0159-.18838.0487-.05503.0328-.05503.0868 0 .0434.02646.0656.02646.0212.06773.0212z"/></g></svg>
