<svg xmlns="http://www.w3.org/2000/svg" viewBox="0 0 67.7333 67.7333" height="256" width="256"><defs><linearGradient id="a"><stop offset="0" stop-color="#30bced"/><stop offset="1" stop-color="#fc5130"/></linearGradient></defs><path d="M33.8667 0A33.8667 33.8667 0 000 33.8667a33.8667 33.8667 0 0033.8667 33.8666 33.8667 33.8667 0 0033.8666-33.8666A33.8667 33.8667 0 0033.8667 0zM20.6375 20.392h5.2632c.3118.732.5208 1.6002.4284 2.525-1.418-1.1137-1.321-.9899-2.484-1.5085-2.6777-1.1939-6.2295.5042-6.8973 3.4525-.7116 2.7094-.1613 6.1566 2.5125 7.6011 2.7919 1.5182 6.9118.89 8.4703-2.0986 1.7073-3.0464 1.6622-6.8325.229-9.9715h11.4142c-1.4332 3.139-1.4783 6.9251.229 9.9715 1.5584 2.9885 5.6783 3.6168 8.4702 2.0986 2.6739-1.4445 3.2241-4.8917 2.5125-7.601-.6678-2.9484-4.2196-4.6465-6.8972-3.4526-1.163.5186-1.066.3948-2.4841 1.5084-.0923-.9247.1166-1.793.4284-2.5249h5.2632c4.031 0 7.276 2.9918 7.276 6.7087 0 3.7168-3.245 6.7091-7.276 6.7091H20.6375c-4.031 0-7.276-2.9923-7.276-6.7091 0-3.7169 3.245-6.7087 7.276-6.7087z" fill="#1f1f23"/><path d="M15.9525 13.272c-2.2157-.0042-4.445.4095-6.4771 1.1442-1.2613.469-2.7204.9113-4.2096 1.3885A33.8667 33.8667 0 00.1106 31.6663c1.322-1.1582 3.1839-3.8001 5.8585-8.7225 1.5126-3.3415 5.813-6.9801 9.48-7.474 3.328-.5093 6.8658.6435 9.2409 3.0505.3373.3419.8453 1.0124 1.2113 1.8717H28.16c-.7327-1.6048-1.8271-3.041-3.238-4.1217-2.5219-2.093-5.7311-2.9922-8.9695-2.9982z" fill="#30bced"/><path d="M51.7813 13.272c-3.2383.006-6.4476.9054-8.9694 2.9983-1.411 1.0808-2.5053 2.517-3.238 4.1217h2.2587c.366-.8593.874-1.5298 1.2113-1.8717 2.375-2.407 5.9128-3.5598 9.2408-3.0504 3.667.4938 7.967 4.1324 9.4795 7.474 2.6746 4.9223 4.5365 7.5642 5.8585 8.7224a33.8661 33.8667 0 00-5.1552-15.8616c-1.4891-.4772-2.9483-.9194-4.2096-1.3885-2.032-.7347-4.2609-1.1484-6.4766-1.1441z" fill="#fc5130"/></svg>